<?xml version="1.0" encoding="UTF-8"?>
<svg id="Layer_2" data-name="Layer 2" xmlns="http://www.w3.org/2000/svg" viewBox="0 0 25.51 27.88">
  <defs>
    <style>
      .cls-1 {
        fill: none;
      }

      .cls-2 {
        fill: #fff;
      }
    </style>
  </defs>
  <g id="Elements">
    <g>
      <path class="cls-1" d="M5.64,14.04v8.08l7.11,4.11,7.11-4.11v-8.08c-2.03,1.42-4.48,2.25-7.11,2.25s-5.08-.83-7.11-2.25Z"/>
      <path class="cls-1" d="M13.37,10.15l-.61-.35-.61.35c.2,0,.4.03.61.03s.41-.02.61-.03Z"/>
      <path class="cls-2" d="M21.21,12.95c2.63-2.42,4.3-5.95,4.3-9.89,0-1.05-.12-2.08-.34-3.06-.97,4.27-3.94,7.73-7.82,9.28,1.6.84,2.93,2.12,3.86,3.66Z"/>
      <path class="cls-2" d="M8.16,9.28C4.28,7.73,1.32,4.27.34,0c-.22.98-.34,2-.34,3.06,0,3.94,1.67,7.47,4.3,9.89.93-1.55,2.26-2.82,3.86-3.66Z"/>
      <path class="cls-2" d="M12.76,9.8l.61.35c1.4-.07,2.74-.37,3.98-.87-1.37-.72-2.93-1.14-4.59-1.14s-3.22.41-4.59,1.14c1.25.5,2.58.8,3.98.87l.61-.35Z"/>
      <path class="cls-2" d="M19.87,14.04v8.08l-7.11,4.11-7.11-4.11v-8.08c-.47-.33-.92-.7-1.34-1.1-.89,1.48-1.41,3.21-1.41,5.07,0,5.45,4.42,9.87,9.87,9.87s9.87-4.42,9.87-9.87c0-1.85-.52-3.58-1.41-5.07-.43.39-.87.76-1.34,1.1Z"/>
      <path class="cls-2" d="M19.87,13.9v.14c.47-.33.92-.7,1.34-1.1-.93-1.55-2.26-2.82-3.86-3.66-1.25.5-2.58.8-3.98.87l6.5,3.76Z"/>
      <path class="cls-2" d="M5.64,13.9l6.5-3.76c-1.4-.07-2.74-.37-3.98-.87-1.6.84-2.93,2.12-3.86,3.66.43.39.87.76,1.34,1.1v-.14Z"/>
      <path id="Plane" class="cls-2" d="M13.1,22.71c-.13.45-.22.86-.41,1.33-.21-.44-.29-.84-.41-1.32l-2.19.51v-.61s2.01-1.08,2.01-1.08l-.27-3.29c-.26,0-.58-.03-.85.03l-4.22.88-.04-.46,2.12-1.2v-.73c0-.07.11-.22.19-.22h.63c.1.12.13.21.14.4l1.93-1.09c.04-1.25-.14-2.7.63-3.7.07-.1.21-.18.31-.18.33-.01.57.47.7.87.15.48.21.97.22,1.47l.04,1.36,1.99,1.27c0-.14.04-.36.12-.37.42-.06.84-.07.84.19v.74s2.09,1.17,2.09,1.17v.47s-4.39-.89-4.39-.89c-.23-.05-.5,0-.76-.01l-.27,3.3,2.02,1.04v.64s-2.19-.52-2.19-.52Z"/>
    </g>
  </g>
</svg>