<svg id="line_icon" height="512" viewBox="0 0 80 80" width="512" xmlns="http://www.w3.org/2000/svg" data-name="line icon"><path d="m48.935 67.549a1.181 1.181 0 0 1 -.525-.124l-6.787-3.417a.4.4 0 0 1 .355-.706l6.787 3.418a.379.379 0 0 0 .523-.2l.7-1.8a.376.376 0 0 0 -.138-.448l-7.069-4.9a.395.395 0 1 1 .449-.649l7.07 4.9a1.161 1.161 0 0 1 .423 1.383l-.7 1.8a1.163 1.163 0 0 1 -1.088.744z"/><path d="m31.063 67.549a1.181 1.181 0 0 1 -.418-.077 1.166 1.166 0 0 1 -.669-.667l-.7-1.8a1.163 1.163 0 0 1 .423-1.383l6.685-4.629a.395.395 0 1 1 .449.649l-6.684 4.629a.377.377 0 0 0 -.138.448l.7 1.8a.376.376 0 0 0 .217.216.384.384 0 0 0 .306-.015l6.237-3.143a.395.395 0 1 1 .355.7l-6.237 3.142a1.17 1.17 0 0 1 -.526.13z"/><path d="m39.664 67.664a1.363 1.363 0 0 1 -1.194-.689c-2.31-4.011-3.253-15.22-3.635-24.118l-24.375 4.172a.4.4 0 0 1 -.46-.389v-3.3a.4.4 0 0 1 .212-.35l24.377-12.727c.02-4.177.117-8.837.142-9.142.439-5.336 2.785-7.387 4.144-8.134a2.239 2.239 0 0 1 2.186.022c4.557 2.56 4.359 9.884 4.349 10.194v7.06l24.377 12.731a.4.4 0 0 1 .212.35v3.3a.4.4 0 0 1 -.461.389l-24.312-4.169c-.918 14.21-3.142 21.8-4.323 24.051a1.4 1.4 0 0 1 -1.209.749zm-4.453-25.69a.375.375 0 0 1 .393.355c.516 12.559 1.777 21.172 3.551 24.252a.6.6 0 0 0 1.048-.032c1.164-2.222 3.371-9.813 4.263-24.172a.4.4 0 0 1 .149-.286.4.4 0 0 1 .311-.079l24.284 4.16v-2.589l-24.377-12.731a.4.4 0 0 1 -.212-.35v-7.313c0-.084.19-7.168-3.947-9.492a1.453 1.453 0 0 0 -1.418-.018c-1.221.671-3.329 2.538-3.739 7.507-.02.249-.121 5.008-.139 9.318a.4.4 0 0 1 -.212.349l-24.378 12.73v2.589l24.239-4.149a.376.376 0 0 1 .171-.049z"/><path d="m63.872 40.751a.4.4 0 0 1 -.4-.395v-3.694a1.548 1.548 0 1 0 -3.1 0v1.665a.395.395 0 1 1 -.789 0v-1.665a2.338 2.338 0 1 1 4.675 0v3.694a.4.4 0 0 1 -.386.395z"/><path d="m16.127 40.74a.4.4 0 0 1 -.395-.4v-3.689a2.338 2.338 0 0 1 4.675 0l-.01 1.678a.4.4 0 0 1 -.395.393.394.394 0 0 1 -.392-.4l.01-1.676a1.549 1.549 0 0 0 -3.1 0v3.694a.394.394 0 0 1 -.393.4z"/><path d="m54.844 36.029a.4.4 0 0 1 -.4-.4v-3.85a1.548 1.548 0 1 0 -3.1 0v1.821a.395.395 0 1 1 -.789 0v-1.816a2.338 2.338 0 1 1 4.675 0v3.85a.4.4 0 0 1 -.386.395z"/><path d="m25.155 36.029a.4.4 0 0 1 -.395-.4v-3.85a2.338 2.338 0 1 1 4.675 0v1.821a.395.395 0 1 1 -.789 0v-1.816a1.549 1.549 0 0 0 -3.1 0v3.85a.394.394 0 0 1 -.391.395z"/><path d="m42.471 23.766h-4.943a.4.4 0 0 1 -.395-.395v-1.551a2.866 2.866 0 0 1 5.732 0v1.551a.394.394 0 0 1 -.394.395zm-4.548-.79h4.153v-1.156a2.077 2.077 0 1 0 -4.153 0z"/></svg>